<svg width="40" height="40" viewBox="0 0 40 40" fill="none" xmlns="http://www.w3.org/2000/svg">
<path d="M19.9676 0.0864979C11.9027 0.0864979 4.62702 4.95136 1.53513 12.4C-1.55676 19.8487 0.151349 28.4324 5.85946 34.1405C13.6541 41.9351 26.2811 41.9351 34.0649 34.1405C41.8595 26.346 41.8595 13.7189 34.0649 5.93515C30.3459 2.17298 25.2649 0.0756871 19.9676 0.0864979ZM33.3838 33.4487C25.9676 40.8216 13.9892 40.8 6.59459 33.4054C-0.800003 26.0108 -0.810814 14.0324 6.55135 6.61623C13.9676 -0.756745 25.9459 -0.735124 33.3405 6.65947C40.7459 14.0541 40.7568 26.0324 33.3838 33.4487Z" fill="#FBC436"/>
<path d="M19.9676 4.01082C15.7189 4.00001 11.6432 5.69731 8.64864 8.70272C2.4 14.9514 2.4 25.1135 8.64864 31.3514C14.9081 37.6 25.0378 37.6 31.2973 31.3514C37.5459 25.1027 37.5459 14.9406 31.2973 8.70272C28.3027 5.69731 24.227 4.00001 19.9676 4.01082ZM30.6162 30.6703C24.7459 36.5406 15.2 36.5406 9.34054 30.6703C3.48108 24.8 3.47027 15.2541 9.34054 9.39461C15.2108 3.52434 24.7459 3.52434 30.6162 9.39461C36.4757 15.2649 36.4757 24.8 30.6162 30.6703Z" fill="#FBC436"/>
<path d="M19.9676 14.0324C21.4703 14.0324 22.6919 15.2541 22.6919 16.7568C22.6919 17.4054 23.6649 17.4054 23.6649 16.7568C23.6649 14.9081 22.2919 13.3405 20.4541 13.0919V11.7838C20.4541 11.1351 19.4811 11.1351 19.4811 11.7838V13.0919C17.5568 13.3514 16.1514 15.0595 16.2811 16.9946C16.4108 18.9405 18.0216 20.4432 19.9676 20.4432C21.4595 20.4432 22.6811 21.6541 22.6811 23.1459C22.6919 24.6378 21.4919 25.8595 19.9892 25.8811C19.9784 25.8811 19.9676 25.8811 19.9568 25.8811C19.946 25.8811 19.9351 25.8811 19.9243 25.8811C18.4324 25.8595 17.2324 24.6487 17.2324 23.1568C17.2324 22.5081 16.2595 22.5081 16.2595 23.1568C16.2595 25.0054 17.6324 26.573 19.4703 26.8216V28.2811C19.4703 28.9297 20.4433 28.9297 20.4433 28.2811V26.8216C22.3676 26.5622 23.773 24.8541 23.6433 22.9189C23.5135 20.973 21.9027 19.4703 19.9568 19.4703C19.2324 19.4703 18.5405 19.1892 18.0216 18.6811C17.5027 18.173 17.2216 17.4703 17.2216 16.7459C17.2216 16.0216 17.5135 15.3297 18.0216 14.8108C18.5514 14.3135 19.2432 14.0216 19.9676 14.0324Z" fill="#FBC436"/>
</svg>
