<svg width="33" height="40" viewBox="0 0 33 40" fill="none" xmlns="http://www.w3.org/2000/svg">
<path d="M30.6213 4.54299L30.6214 4.54301C31.3699 4.76367 31.8952 5.4663 31.8951 6.24677V6.24685V17.0291C31.8951 21.9186 30.44 26.6248 27.6871 30.6417L28.0996 30.9244L27.6871 30.6417C24.9987 34.5647 21.2583 37.5815 16.8697 39.3675C16.6518 39.4561 16.4242 39.5 16.1976 39.5C15.971 39.5 15.7434 39.4561 15.5255 39.3675C11.1369 37.5815 7.39649 34.5646 4.70806 30.6417L4.29799 30.9228L4.70805 30.6417C1.9551 26.6249 0.5 21.9186 0.5 17.0291V6.24677C0.5 5.46627 1.02536 4.76366 1.77399 4.54292L1.77401 4.54291L14.7936 0.703231L14.6523 0.224232L14.7936 0.703229C15.7124 0.432253 16.6831 0.432265 17.6015 0.703217L17.6016 0.703231L30.6213 4.54299Z" stroke="#FBC436"/>
<path d="M16.5981 33.8472L16.5982 33.8471C19.2594 32.4534 21.5887 30.4046 23.3318 27.923L23.7409 28.2104L23.3318 27.923C25.5791 24.7237 26.767 20.9577 26.767 17.029V9.40041C26.767 9.40039 26.767 9.40037 26.767 9.40034C26.7669 9.02058 26.51 8.67714 26.146 8.56977L16.5981 33.8472ZM16.5981 33.8472C16.4728 33.9128 16.3354 33.9456 16.1977 33.9456C16.0599 33.9456 15.9226 33.9128 15.7974 33.8472L15.7973 33.8471C13.136 32.4534 10.8067 30.4047 9.0637 27.923L9.06369 27.923C6.81637 24.7237 5.62845 20.9577 5.62845 17.029V9.40034C5.62845 9.02085 5.88531 8.67724 6.24949 8.56977C6.24951 8.56976 6.24953 8.56976 6.24955 8.56975L15.9528 5.70805L15.9529 5.70803C16.1132 5.66074 16.2819 5.66077 16.4425 5.70805C16.4425 5.70806 16.4425 5.70807 16.4426 5.70808L26.146 8.56976L16.5981 33.8472Z" stroke="#FBC436"/>
</svg>
