<svg width="40" height="40" viewBox="0 0 40 40" fill="none" xmlns="http://www.w3.org/2000/svg">
<path d="M14.8837 39.2169L14.8837 39.2169L0.783095 25.1162C0.405655 24.7387 0.405647 24.1236 0.783004 23.7462C0.783013 23.7462 0.783022 23.7462 0.783031 23.7462L23.7454 0.783734C23.9286 0.600588 24.176 0.5 24.4308 0.5C24.488 0.5 24.5455 0.50506 24.6029 0.515388C24.603 0.515396 24.603 0.515404 24.6031 0.515411C24.6031 0.515419 24.6031 0.515427 24.6032 0.515436L36.5447 2.67442L36.5448 2.67444C36.9391 2.74566 37.2543 3.06078 37.3256 3.45533L37.8176 3.36639L37.3256 3.45535L39.4845 15.397L39.4845 15.397C39.541 15.7092 39.4407 16.0299 39.2161 16.2544L16.2537 39.2169C16.2537 39.2169 16.2537 39.2169 16.2537 39.2169C15.8761 39.5944 15.261 39.5943 14.8837 39.2169Z" stroke="#FBC436"/>
<path d="M14.2437 31.1108L12.1906 29.0577L13.3923 27.8561C13.5142 27.7342 13.5593 27.5935 13.5274 27.4344C13.4956 27.2752 13.4188 27.1347 13.2967 27.0126C13.1642 26.8801 13.0167 26.7991 12.855 26.7699C12.6932 26.7407 12.5539 26.7845 12.4373 26.9011L11.2357 28.1027L9.89072 26.7577L11.9519 24.6966C12.0685 24.5799 12.1071 24.4354 12.0673 24.263C12.0275 24.0907 11.9307 23.9275 11.7768 23.7736C11.6336 23.6303 11.4771 23.5375 11.3072 23.495C11.1375 23.4527 10.9917 23.4924 10.8697 23.6143L8.10835 26.3757C7.95976 26.5244 7.86559 26.6849 7.82585 26.8573C7.78602 27.0299 7.82718 27.1769 7.94914 27.2989L13.0024 32.3522C13.1246 32.4744 13.2797 32.5075 13.468 32.4519C13.6563 32.3963 13.8352 32.2835 14.0051 32.1136C14.1748 31.9437 14.2876 31.7649 14.3432 31.5765C14.399 31.3882 14.366 31.2331 14.2437 31.1108Z" fill="#FBC436"/>
<path d="M17.9737 27.3397C17.972 27.335 17.9705 27.3301 17.9695 27.3253C17.9675 27.3158 17.9677 27.3104 17.9678 27.3104C17.9678 27.3103 17.9675 27.3184 17.9621 27.3366L17.9738 27.3401L17.9737 27.3397ZM17.9737 27.3397L18.0055 27.3491L18.4416 27.4783L17.9737 27.3397ZM17.8693 23.5934L20.5809 24.3762C20.5994 24.4068 20.6256 24.48 20.6097 24.6447L20.6096 24.6455C20.5897 24.8551 20.5218 24.9853 20.4316 25.0756L20.4315 25.0757C20.3878 25.1194 20.3635 25.1261 20.3603 25.127L20.3602 25.127C20.3584 25.1276 20.3451 25.1315 20.3085 25.1199C20.3084 25.1199 20.3083 25.1198 20.3082 25.1198L17.1018 24.0935L16.8115 24.0005L16.5959 24.2161L16.0706 24.7414L15.717 25.0949L16.0706 25.4485L17.9613 27.3392C17.9334 27.4312 17.8722 27.5393 17.7497 27.6618C17.627 27.7845 17.5188 27.8456 17.4271 27.8733L12.393 22.8392C12.3888 22.835 12.387 22.8325 12.3864 22.8317C12.3863 22.8315 12.3862 22.8313 12.3862 22.8312C12.3861 22.8309 12.3858 22.8302 12.3856 22.829C12.3851 22.8267 12.3844 22.8218 12.3842 22.8136C12.3842 22.8122 12.3842 22.8111 12.3843 22.8103C12.386 22.8075 12.3905 22.8008 12.4008 22.7905L12.401 22.7904L14.0484 21.143C14.6575 20.5338 15.182 20.2765 15.6235 20.2458C16.0475 20.2163 16.5026 20.389 17.0019 20.8883L17.0019 20.8883C17.3719 21.2582 17.574 21.6041 17.6546 21.9227C17.7333 22.2336 17.7064 22.5573 17.5504 22.9114L17.3199 23.4348L17.8693 23.5934ZM16.6109 23.7053L16.6109 23.7053C16.8981 23.418 17.1053 23.0702 17.1191 22.6646L17.1191 22.6644C17.1339 22.2269 16.8942 21.8492 16.587 21.5419L16.2334 21.8955L16.587 21.5419C16.2798 21.2347 15.9022 20.9954 15.4648 21.01L15.4647 21.01C15.059 21.0237 14.711 21.2308 14.4237 21.5181L13.6357 22.3061L13.2822 22.6596L13.6357 23.0132L15.1158 24.4933L15.4694 24.8468L15.8229 24.4933L16.6109 23.7053Z" stroke="#FBC436"/>
<path d="M25.6235 20.1767C25.5811 20.0069 25.4883 19.8505 25.345 19.7072C25.1912 19.5534 25.0281 19.4566 24.8556 19.4167C24.6831 19.3772 24.5385 19.4156 24.4219 19.5321L22.2892 21.6649L20.9364 20.3121L22.1301 19.1184C22.2521 18.9964 22.2972 18.8557 22.2654 18.6966C22.2336 18.5373 22.1568 18.3969 22.0346 18.2748C21.9021 18.1423 21.7547 18.0613 21.593 18.0321C21.431 18.003 21.2917 18.0468 21.1752 18.1633L19.9814 19.3571L18.6365 18.0121L20.7692 15.8793C20.8859 15.7627 20.9244 15.6181 20.8847 15.4457C20.845 15.2733 20.7481 15.1101 20.5942 14.9562C20.451 14.8129 20.2946 14.7202 20.1246 14.6776C19.955 14.6354 19.809 14.6751 19.6871 14.7971L16.8541 17.6301C16.7057 17.7787 16.6114 17.9391 16.5717 18.1116C16.5318 18.2841 16.573 18.4311 16.695 18.5532L21.7482 23.6065C21.8705 23.7287 22.0175 23.7698 22.1898 23.7298C22.3623 23.6902 22.5225 23.5959 22.6711 23.4473L25.5041 20.6143C25.6261 20.4924 25.666 20.3466 25.6235 20.1767Z" fill="#FBC436"/>
<path d="M29.9127 15.8874C29.8703 15.7177 29.7775 15.5612 29.6342 15.4179C29.4804 15.2641 29.3172 15.1673 29.1448 15.1274C28.9723 15.0879 28.8277 15.1262 28.7111 15.2428L26.5784 17.3755L25.2257 16.0227L26.4193 14.8291C26.5413 14.7071 26.5864 14.5664 26.5545 14.4073C26.5228 14.2481 26.4459 14.1076 26.3238 13.9855C26.1913 13.853 26.0439 13.772 25.8822 13.7429C25.7202 13.7138 25.581 13.7575 25.4643 13.8741L24.2707 15.0678L22.9257 13.7228L25.0584 11.5901C25.1751 11.4734 25.2136 11.329 25.1739 11.1565C25.1341 10.9842 25.0373 10.821 24.8834 10.667C24.7402 10.5237 24.5837 10.431 24.4138 10.3884C24.2442 10.3462 24.0982 10.386 23.9763 10.5079L21.1433 13.3409C20.9948 13.4894 20.9006 13.65 20.8609 13.8224C20.821 13.9949 20.8622 14.1419 20.9841 14.264L26.0374 19.3173C26.1596 19.4395 26.3066 19.4806 26.4789 19.4406C26.6514 19.401 26.8117 19.3067 26.9603 19.1581L29.7933 16.3251C29.9153 16.2032 29.9552 16.0573 29.9127 15.8874Z" fill="#FBC436"/>
<path d="M32.5 5C31.1 5 30 6.1 30 7.5C30 8.9 31.1 10 32.5 10C33.9 10 35 8.9 35 7.5C35 6.1 33.9 5 32.5 5ZM32.5 9.5C31.4 9.5 30.5 8.6 30.5 7.5C30.5 6.4 31.4 5.5 32.5 5.5C33.6 5.5 34.5 6.4 34.5 7.5C34.5 8.6 33.6 9.5 32.5 9.5Z" fill="#FBC436"/>
</svg>
