<svg width="53" height="37" viewBox="0 0 53 37" fill="none" xmlns="http://www.w3.org/2000/svg">
<path d="M12.2216 36.4773C10.0739 36.4773 8.15341 36.0909 6.46023 35.3182C4.76705 34.5341 3.42614 33.4489 2.4375 32.0625C1.44886 30.6761 0.926136 29.0795 0.869318 27.2727H4.09091C4.14773 28.5455 4.53977 29.6591 5.26705 30.6136C5.99432 31.5568 6.96023 32.2955 8.16477 32.8295C9.36932 33.3523 10.7102 33.6136 12.1875 33.6136C13.8011 33.6136 15.2216 33.3125 16.4489 32.7102C17.6875 32.108 18.6534 31.2841 19.3466 30.2386C20.0511 29.1818 20.4034 27.9886 20.4034 26.6591C20.4034 25.25 20.0455 24.0057 19.3295 22.9261C18.6136 21.8466 17.5852 21.0057 16.2443 20.4034C14.9148 19.8011 13.3239 19.5 11.4716 19.5H9.42614V16.6364H11.4716C12.983 16.6364 14.3182 16.3636 15.4773 15.8182C16.6477 15.2614 17.5682 14.483 18.2386 13.483C18.9091 12.483 19.2443 11.3068 19.2443 9.95455C19.2443 8.67045 18.9545 7.53977 18.375 6.5625C17.7955 5.58523 16.9773 4.81818 15.9205 4.26136C14.875 3.70454 13.6534 3.42614 12.2557 3.42614C10.9034 3.42614 9.66477 3.6875 8.53977 4.21023C7.41477 4.73295 6.50568 5.47159 5.8125 6.42614C5.13068 7.38068 4.76705 8.51136 4.72159 9.81818H1.63636C1.68182 8 2.18182 6.40341 3.13636 5.02841C4.10227 3.64204 5.38068 2.5625 6.97159 1.78977C8.57386 1.00568 10.3466 0.613635 12.2898 0.613635C14.3466 0.613635 16.125 1.03409 17.625 1.875C19.125 2.71591 20.2841 3.83523 21.1023 5.23295C21.9318 6.61932 22.3466 8.14773 22.3466 9.81818C22.3466 11.8068 21.8068 13.5114 20.7273 14.9318C19.6477 16.3409 18.1932 17.3182 16.3636 17.8636V18.0852C18.5909 18.5284 20.3409 19.517 21.6136 21.0511C22.8977 22.5739 23.5398 24.4432 23.5398 26.6591C23.5398 28.5227 23.0511 30.1989 22.0739 31.6875C21.0966 33.1648 19.7557 34.3352 18.0511 35.1989C16.358 36.0511 14.4148 36.4773 12.2216 36.4773ZM31.0739 36V33.6648L42.4773 20.8466C43.9659 19.1648 45.1648 17.7273 46.0739 16.5341C46.983 15.3409 47.642 14.2386 48.0511 13.2273C48.4716 12.2159 48.6818 11.1648 48.6818 10.0739C48.6818 8.74432 48.3693 7.58523 47.7443 6.59659C47.1307 5.59659 46.2841 4.81818 45.2045 4.26136C44.125 3.70454 42.9091 3.42614 41.5568 3.42614C40.125 3.42614 38.8693 3.73295 37.7898 4.34659C36.7216 4.96023 35.892 5.80113 35.3011 6.86932C34.7102 7.9375 34.4148 9.16477 34.4148 10.5511H31.3636C31.3636 8.61932 31.8068 6.90909 32.6932 5.42045C33.5909 3.92045 34.8125 2.74432 36.358 1.89204C37.9148 1.03977 39.6761 0.613635 41.642 0.613635C43.5852 0.613635 45.3125 1.03409 46.8239 1.875C48.3352 2.70454 49.5227 3.83523 50.3864 5.26704C51.25 6.69886 51.6818 8.30114 51.6818 10.0739C51.6818 11.358 51.4545 12.6023 51 13.8068C50.5568 15.0114 49.7898 16.3523 48.6989 17.8295C47.608 19.3068 46.0966 21.1136 44.1648 23.25L35.5057 32.9148V33.1364H52.7727V36H31.0739Z" fill="#FBC436"/>
</svg>
