<svg width="110" height="114" viewBox="0 0 110 114" fill="none" xmlns="http://www.w3.org/2000/svg">
<path d="M97.1066 51.4346H60.242C59.3429 51.4346 58.5437 52.1364 58.5437 53.1391C58.5437 54.0414 59.243 54.8436 60.242 54.8436H62.6397V96.7541C62.6397 97.6564 63.3391 98.4586 64.3381 98.4586C65.2372 98.4586 66.0365 97.7567 66.0365 96.7541V54.7433H95.5081V107.984C95.5081 109.488 94.3093 110.591 92.9106 110.591H65.9366V103.773C65.9366 102.87 65.2372 102.068 64.2382 102.068C63.2392 102.068 62.5398 102.77 62.5398 103.773V110.591H51.3506V63.366C51.3506 62.4637 50.6513 61.6615 49.6522 61.6615C48.6532 61.6615 47.9539 62.3634 47.9539 63.366V110.691H21.2795C19.781 110.691 18.682 109.488 18.682 108.084V89.8358C18.682 88.9334 17.9827 88.1313 16.9836 88.1313C15.9846 88.1313 15.2853 88.8332 15.2853 89.8358V107.984C15.2853 111.292 17.9827 114 21.2795 114H92.8107C96.1076 114 98.805 111.292 98.805 107.984V53.1391C98.7051 52.1364 98.0057 51.4346 97.1066 51.4346Z" fill="#FBC436"/>
<path d="M19.1816 85.2247C19.781 85.2247 20.4803 85.0242 20.9798 84.5229L32.8684 72.8922C33.5677 72.2906 33.5677 71.1877 32.8684 70.4858C32.269 69.784 31.17 69.784 30.4707 70.4858L19.0816 81.5149L10.7896 72.9925C10.5898 72.7919 10.39 72.3909 10.39 72.0901C10.39 71.7893 10.4899 71.3882 10.7896 71.1877L26.6743 55.747L31.0701 51.4356L33.0682 49.4303L42.2594 58.9554L35.5658 65.5729C34.8665 66.1745 34.8665 67.2774 35.5658 67.9792C36.1652 68.6811 37.2642 68.6811 37.9635 67.9792L49.952 56.148L59.7425 46.6229L84.7185 22.2587C85.7176 21.256 85.7176 19.6518 84.8184 18.6492L75.927 9.52511C75.0278 8.62274 73.9289 8.12141 72.6301 8.12141C71.4313 8.12141 70.2325 8.52247 69.3333 9.42485L58.6436 19.8523C58.5437 17.6465 57.6446 15.3404 55.9462 13.636L45.5562 2.90767C43.7579 1.10291 41.3602 0 38.8626 0C36.2651 0 33.8674 0.902379 31.9693 2.70714L30.9702 3.70978C25.5754 9.02379 25.2757 17.5463 30.2709 23.1611C29.3718 23.4619 28.4726 23.9632 27.6734 24.665L24.976 27.3722C24.2767 28.074 23.6772 28.9764 23.3775 29.8788C17.9827 24.7653 9.39097 24.7653 3.99616 30.0793L2.99712 31.082C1.09894 32.8867 0 35.2931 0 37.8999C0 40.5068 0.899135 42.9131 2.69741 44.8182L13.0874 55.5465C14.7858 57.2509 16.9837 58.2536 19.1816 58.4541L8.59174 68.6811C6.79347 70.4858 6.69356 73.3935 8.49183 75.2985L17.3833 84.4226C17.8828 84.9239 18.4822 85.2247 19.1816 85.2247ZM44.757 56.5491L35.5658 47.024L41.2603 41.5094L42.659 40.206L46.9548 35.9949L56.146 45.52L49.7522 51.7364L44.757 56.5491ZM71.6311 11.8312C71.8309 11.6307 72.2305 11.4301 72.5303 11.4301C72.83 11.4301 73.2296 11.5304 73.4294 11.8312L81.7214 20.3537L58.5437 43.1137L49.3525 33.5886L71.6311 11.8312ZM33.268 6.11613L34.267 5.11348C35.4659 3.91031 37.0644 3.30872 38.7627 3.30872C40.4611 3.30872 42.0596 4.01057 43.1585 5.21375C45.4563 7.62009 45.5562 11.4301 43.2584 13.9367C42.659 14.6386 42.659 15.6412 43.3583 16.3431C44.0576 16.9447 45.0567 16.9447 45.756 16.2428C47.2546 14.6386 48.1537 12.533 48.2536 10.5278L53.5485 15.942C55.9462 18.4486 55.9462 22.4592 53.4486 24.8656L44.3573 33.6888C44.0576 32.6862 43.5581 31.6835 42.7589 30.8814L41.9596 30.1796L45.4563 26.7706C46.1556 26.169 46.1556 25.0661 45.4563 24.3642C44.8569 23.6624 43.7579 23.6624 43.0586 24.3642L39.562 27.7732L36.8645 24.9658L40.561 21.3563C41.2603 20.7547 41.2603 19.6518 40.561 18.95C39.9616 18.2481 38.8626 18.2481 38.1633 18.95L34.267 22.76L32.9683 21.3563C30.9702 19.2508 29.8713 16.5436 29.9712 13.7362C30.0711 10.8286 31.17 8.12141 33.268 6.11613ZM27.2738 29.7785L29.9712 27.0714C30.5706 26.4698 31.3698 26.169 32.1691 26.169C32.9683 26.169 33.7675 26.4698 34.367 27.0714L40.3612 33.1875C41.56 34.3907 41.56 36.396 40.2613 37.5991L38.9625 39.1031L37.5639 40.5068C36.9645 41.1084 36.1652 41.4092 35.366 41.4092C34.5668 41.4092 33.7675 41.1084 33.1681 40.5068L31.17 38.5015L27.1739 34.3907C25.975 32.987 25.975 30.9817 27.2738 29.7785ZM5.29491 33.4883L6.29395 32.4857C8.39193 30.4804 11.0893 29.4777 13.7867 29.4777C16.5841 29.4777 19.3814 30.5806 21.4793 32.6862L22.7781 34.0899L14.0865 42.6124C12.8876 43.8155 11.2891 44.4171 9.59078 44.4171C7.89241 44.4171 6.29395 43.7153 5.195 42.5121C4.09606 41.3089 3.39673 39.7047 3.39673 38.0002C3.39673 36.1954 3.99616 34.6915 5.29491 33.4883ZM15.4851 53.1401L10.1902 47.7258C12.488 47.6256 14.6859 46.6229 16.3842 45.0187L24.8761 36.6968L27.5735 39.5042L24.0768 42.9131C23.3775 43.5147 23.3775 44.6176 24.0768 45.3195C24.3766 45.6203 24.8761 45.8208 25.2757 45.8208C25.6753 45.8208 26.0749 45.6203 26.4745 45.3195L29.9712 41.9105L30.7704 42.7126C31.5696 43.5147 32.4688 44.1163 33.4678 44.4171L24.3766 53.2404C21.879 55.6467 17.8828 55.6467 15.4851 53.1401Z" fill="#FBC436"/>
<path d="M83.4198 34.1908C83.4198 33.2884 82.7204 32.4863 81.7214 32.4863C80.7224 32.4863 80.023 33.1882 80.023 34.1908V35.8953C80.023 36.7977 80.7224 37.5998 81.7214 37.5998C82.7204 37.5998 83.4198 36.898 83.4198 35.8953V34.1908Z" fill="#FBC436"/>
<path d="M84.6186 40.5072C84.6186 41.4096 85.318 42.2117 86.317 42.2117H88.0154C88.9145 42.2117 89.7137 41.5099 89.7137 40.5072C89.7137 39.5046 89.0144 38.8027 88.0154 38.8027H86.317C85.318 38.8027 84.6186 39.5046 84.6186 40.5072Z" fill="#FBC436"/>
<path d="M81.7214 43.3145C80.8223 43.3145 80.023 44.0163 80.023 45.019V46.7234C80.023 47.6258 80.7224 48.4279 81.7214 48.4279C82.7204 48.4279 83.4198 47.7261 83.4198 46.7234V45.019C83.3199 44.1166 82.6205 43.3145 81.7214 43.3145Z" fill="#FBC436"/>
<path d="M75.4274 38.7021C74.5283 38.7021 73.7291 39.404 73.7291 40.4066C73.7291 41.4093 74.4284 42.1111 75.4274 42.1111H77.1258C78.0249 42.1111 78.8242 41.4093 78.8242 40.4066C78.8242 39.404 78.1248 38.7021 77.1258 38.7021H75.4274Z" fill="#FBC436"/>
<path d="M92.2113 19.9519C93.2104 20.5535 94.0096 21.3556 94.7089 22.4585C95.2085 23.2606 96.1076 23.7619 97.0067 23.7619C97.0067 23.7619 97.0067 23.7619 97.1066 23.7619C98.1057 23.7619 99.0048 23.2606 99.5043 22.3582C100.104 21.3556 100.903 20.6537 101.902 19.9519C102.801 19.4506 103.301 18.5482 103.301 17.5455C103.301 16.5429 102.801 15.6405 102.002 15.1392C100.903 14.4373 100.104 13.6352 99.5043 12.6325C99.0048 11.8304 98.1057 11.3291 97.2065 11.3291C96.3074 11.3291 95.4083 11.8304 94.9087 12.6325C94.3093 13.6352 93.4102 14.4373 92.3112 15.1392C91.512 15.6405 91.0125 16.5429 91.0125 17.5455C90.8127 18.5482 91.3122 19.4506 92.2113 19.9519ZM97.1066 15.1392C97.806 16.0416 98.6052 16.8437 99.5043 17.5455C98.5053 18.2474 97.6061 19.0495 97.0067 20.0521C96.3074 19.0495 95.5082 18.2474 94.609 17.6458C95.5082 16.8437 96.4073 16.0416 97.1066 15.1392Z" fill="#FBC436"/>
<path d="M106.298 23.8636C105.798 23.3623 104.999 23.0615 104.3 23.0615C103.5 23.0615 102.801 23.4626 102.302 23.9639L96.6071 30.2806C95.9078 31.0827 95.708 32.1856 96.1076 33.1883C96.5072 34.1909 97.4064 34.8928 98.4054 34.993L106.897 35.7952C106.997 35.7952 107.097 35.7952 107.197 35.7952C107.896 35.7952 108.496 35.5946 108.995 35.0933C109.595 34.592 109.894 33.8901 109.994 33.088C110.094 29.4785 108.895 26.3703 106.298 23.8636ZM99.8041 31.7846L104.4 26.7713C105.798 28.3756 106.598 30.2806 106.598 32.4864L99.8041 31.7846Z" fill="#FBC436"/>
<path d="M108.496 39.6042C107.896 39.1029 107.197 38.9023 106.398 39.0026L98.1056 40.0052C97.1066 40.1055 96.2074 40.8074 95.8078 41.81C95.4082 42.8127 95.7079 43.9156 96.4073 44.6174L102.202 50.7335C102.701 51.2349 103.5 51.6359 104.2 51.6359C104.999 51.6359 105.698 51.3351 106.198 50.7335C108.695 48.1267 109.794 45.0185 109.495 41.5092C109.395 40.8074 108.995 40.1055 108.496 39.6042ZM104.1 48.0264L99.5043 43.2137L106.098 42.4116C106.198 44.5171 105.598 46.3219 104.1 48.0264Z" fill="#FBC436"/>
</svg>
