<svg width="113" height="92" viewBox="0 0 113 92" fill="none" xmlns="http://www.w3.org/2000/svg">
<path d="M84.6775 78.1837H106.214L94.2493 37.709H72.7128L84.6775 78.1837Z" stroke="#FBC436" stroke-width="3.34" stroke-miterlimit="10"/>
<path d="M75.1058 13.8261H99.0353V6.66129C99.0353 4.02163 96.8942 1.88477 94.2494 1.88477H86.9446C85.4332 1.88477 84.1738 2.51326 83.1662 3.64454L75.1058 13.8261Z" stroke="#FBC436" stroke-width="3.34" stroke-miterlimit="10"/>
<path d="M15.0743 20.8652H6.57936C4.18641 20.8652 2.29724 23.0021 2.29724 25.6418C2.29724 28.2814 4.18641 30.4183 6.57936 30.4183H15.0743V20.8652Z" stroke="#FBC436" stroke-width="3.34" stroke-miterlimit="10"/>
<path d="M99.0353 13.8271H15.408V32.9332C15.408 35.5729 17.5491 37.7098 20.1939 37.7098H99.0353C101.68 37.7098 103.821 35.5729 103.821 32.9332V18.478C103.821 15.964 101.68 13.8271 99.0353 13.8271Z" stroke="#FBC436" stroke-width="3.34" stroke-miterlimit="10"/>
<path d="M106.214 78.1836H84.6776C82.0327 78.1836 79.8917 80.3205 79.8917 82.9601V85.2227C79.8917 87.8623 82.0327 89.9992 84.6776 89.9992H106.214C108.859 89.9992 111 87.8623 111 85.2227V82.8344C111 80.3205 108.859 78.1836 106.214 78.1836Z" stroke="#FBC436" stroke-width="3.34" stroke-miterlimit="10"/>
<path d="M50.1687 23.5061H81.1511C81.9068 23.5061 82.4106 23.0034 82.4106 22.2492C82.4106 21.495 81.9068 20.9922 81.1511 20.9922H50.1687C49.4131 20.9922 48.9093 21.495 48.9093 22.2492C48.9093 23.0034 49.4131 23.5061 50.1687 23.5061Z" fill="#FBC436"/>
<path d="M88.33 23.5061H95.3829C96.1386 23.5061 96.6423 23.0034 96.6423 22.2492C96.6423 21.495 96.1386 20.9922 95.3829 20.9922H88.33C87.5743 20.9922 87.0706 21.495 87.0706 22.2492C87.0706 23.0034 87.7003 23.5061 88.33 23.5061Z" fill="#FBC436"/>
<path d="M59.1108 38.7148L61.5037 45.2511C61.7556 45.8796 62.5113 46.2566 63.141 46.0053C63.7707 45.7539 64.1486 44.9997 63.8967 44.3712L61.5037 37.8349C61.2518 37.2064 60.4961 36.8293 59.8664 37.0807C59.2367 37.3321 58.8589 38.0863 59.1108 38.7148Z" fill="#FBC436"/>
<path d="M52.1839 38.9664L57.8514 54.5529C57.8514 54.5529 57.8514 54.6786 57.9773 54.8043C58.2292 55.3071 58.6071 55.5585 59.2368 55.5585H76.2393C76.995 55.5585 77.4988 54.93 77.4988 54.3015V54.1758C77.4988 53.4216 76.869 52.9188 76.2393 52.9188H61C60.4962 52.9188 59.9924 52.5417 59.7406 52.0389L54.7028 37.9608C54.4509 37.2066 53.6952 36.9552 52.9395 37.2066C52.3098 37.458 51.932 38.2122 52.1839 38.9664Z" fill="#FBC436"/>
<path d="M17.5491 13.0726V2.13687C17.5491 1.00558 16.6675 0 15.408 0C14.2745 0 13.267 0.879886 13.267 2.13687V13.0726C13.267 14.2039 14.1486 15.2095 15.408 15.2095C16.5415 15.2095 17.5491 14.2039 17.5491 13.0726Z" fill="#FBC436"/>
<path d="M15.8614 87.1087C22.3998 87.1087 27.7002 81.8187 27.7002 75.2931C27.7002 68.7676 22.3998 63.4775 15.8614 63.4775C9.32305 63.4775 4.02264 68.7676 4.02264 75.2931C4.02264 81.8187 9.32305 87.1087 15.8614 87.1087Z" stroke="#FBC436" stroke-width="3.34" stroke-miterlimit="10"/>
<path d="M15.8614 90C15.4836 90 15.2317 89.7486 15.2317 89.3715V61.0894C15.2317 60.7123 15.4836 60.4609 15.8614 60.4609C16.2392 60.4609 16.4911 60.7123 16.4911 61.0894V89.4972C16.4911 89.7486 16.1133 90 15.8614 90Z" fill="#FBC436"/>
<path d="M30.597 75.2935C30.597 75.6706 30.3451 75.922 29.9673 75.922H1.62972C1.25189 75.922 1 75.6706 1 75.2935C1 74.9164 1.25189 74.665 1.62972 74.665H30.0932C30.3451 74.665 30.597 74.9164 30.597 75.2935Z" fill="#FBC436"/>
<path d="M15.8614 77.3036C16.9743 77.3036 17.8765 76.4032 17.8765 75.2924C17.8765 74.1817 16.9743 73.2812 15.8614 73.2812C14.7485 73.2812 13.8463 74.1817 13.8463 75.2924C13.8463 76.4032 14.7485 77.3036 15.8614 77.3036Z" stroke="#FBC436" stroke-width="0.5034" stroke-miterlimit="10"/>
</svg>
