<svg width="110" height="102" viewBox="0 0 110 102" fill="none" xmlns="http://www.w3.org/2000/svg">
<g clip-path="url(#clip0)">
<path d="M21.8447 88.8354H5.33984L14.5631 57.5732H31.068L21.8447 88.8354Z" stroke="#FBC436" stroke-width="3.34" stroke-miterlimit="10"/>
<path d="M29.2233 39.1266H10.7767V33.5926C10.7767 31.5538 12.4272 29.9033 14.4661 29.9033H20.0971C21.2622 29.9033 22.233 30.3888 23.0097 31.2625L29.2233 39.1266Z" stroke="#FBC436" stroke-width="3.34" stroke-miterlimit="10"/>
<path d="M75.2427 44.6602H105.048C106.893 44.6602 108.349 46.3106 108.349 48.3495C108.349 50.3883 106.893 52.0388 105.048 52.0388H75.2427V44.6602Z" stroke="#FBC436" stroke-width="3.34" stroke-miterlimit="10"/>
<path d="M56.8932 57.4756H67.9612V79.9999C67.9612 81.7474 66.3107 83.2037 64.2718 83.2037H60.5825C58.5437 83.2037 56.8932 81.7474 56.8932 79.9999V57.4756V57.4756Z" stroke="#FBC436" stroke-width="3.34" stroke-miterlimit="10"/>
<path d="M80.9709 81.4566C80.8738 80.8741 80.7767 80.1945 80.7767 79.612C80.7767 74.5634 84.8544 70.3887 90 70.3887C95.1457 70.3887 99.2233 74.4663 99.2233 79.612C99.2233 80.1945 99.1263 80.8741 99.0292 81.4566" stroke="#FBC436" stroke-width="3.34" stroke-miterlimit="10" stroke-linecap="round"/>
<path d="M48.4465 26.7959H57.864C58.3495 26.7959 58.7378 26.9901 58.7378 27.2813V38.5435C58.7378 38.8347 58.3495 39.0289 57.864 39.0289H48.4465C47.9611 39.0289 47.5728 38.8347 47.5728 38.5435V27.3784C47.6698 27.0872 48.0582 26.7959 48.4465 26.7959Z" stroke="#FBC436" stroke-width="3.34" stroke-miterlimit="10"/>
<path d="M10.8738 39.126H75.3398V53.8833C75.3398 55.9221 73.6893 57.5726 71.6505 57.5726H10.8738C8.83493 57.5726 7.18445 55.9221 7.18445 53.8833V42.8153C7.18445 40.7765 8.83493 39.126 10.8738 39.126Z" stroke="#FBC436" stroke-width="3.34" stroke-miterlimit="10"/>
<path d="M80.0971 9.51447C79.1263 12.9125 78.1554 16.4077 77.1845 19.9028C76.5049 22.33 75.0486 24.4659 72.9127 25.9222C70.4855 27.6698 67.3787 28.3494 64.369 27.7669C56.9903 26.4077 49.3204 26.4077 41.9418 27.7669C38.9321 28.3494 35.9224 27.6698 33.3981 25.9222C31.3593 24.4659 29.8059 22.33 29.1263 19.9028C28.1554 16.5048 27.1845 13.0096 26.2136 9.51447C25.9224 8.64068 26.1165 7.66981 26.602 6.89311C27.0874 6.11641 27.8641 5.53389 28.7379 5.33971C28.9321 5.24262 29.2233 5.24262 29.4175 5.14554C44.8544 0.485342 61.3593 0.485342 76.8932 5.14554C77.0874 5.24262 77.3787 5.24262 77.5729 5.33971C78.4466 5.53389 79.2233 6.11641 79.7088 6.89311C80.1942 7.66981 80.2913 8.54359 80.0971 9.51447Z" stroke="#FBC436" stroke-width="3.34" stroke-miterlimit="10"/>
<path d="M5.33983 88.835H21.9418C23.9806 88.835 25.6311 90.4855 25.6311 92.5243V94.3689C25.6311 96.4078 23.9806 98.0583 21.9418 98.0583H5.33983C3.301 98.0583 1.65051 96.4078 1.65051 94.3689V92.5243C1.65051 90.4855 3.301 88.835 5.33983 88.835Z" stroke="#FBC436" stroke-width="3.34" stroke-miterlimit="10"/>
<path d="M99.2233 99.9027C104.317 99.9027 108.447 95.7732 108.447 90.6794C108.447 85.5855 104.317 81.4561 99.2233 81.4561C94.1294 81.4561 90 85.5855 90 90.6794C90 95.7732 94.1294 99.9027 99.2233 99.9027Z" stroke="#FBC436" stroke-width="3.34" stroke-miterlimit="10"/>
<path d="M80.7766 99.9027C85.8705 99.9027 90 95.7732 90 90.6794C90 85.5855 85.8705 81.4561 80.7766 81.4561C75.6828 81.4561 71.5533 85.5855 71.5533 90.6794C71.5533 95.7732 75.6828 99.9027 80.7766 99.9027Z" stroke="#FBC436" stroke-width="3.34" stroke-miterlimit="10"/>
<path d="M48.5437 46.6019H24.6602C24.0777 46.6019 23.6893 46.2136 23.6893 45.631C23.6893 45.0485 24.0777 44.6602 24.6602 44.6602H48.5437C49.1262 44.6602 49.5146 45.0485 49.5146 45.631C49.5146 46.2136 49.0291 46.6019 48.5437 46.6019Z" fill="#FBC436"/>
<path d="M19.0291 46.6019H13.5922C13.0097 46.6019 12.6213 46.2136 12.6213 45.631C12.6213 45.0485 13.0097 44.6602 13.5922 44.6602H19.0291C19.6116 44.6602 20 45.0485 20 45.631C20 46.2136 19.6116 46.6019 19.0291 46.6019Z" fill="#FBC436"/>
<path d="M40.3883 58.5437L38.5437 63.5922C38.3495 64.0776 37.767 64.3689 37.2815 64.1747C36.7961 63.9806 36.5048 63.398 36.699 62.9126L38.5437 57.864C38.7378 57.3786 39.3204 57.0874 39.8058 57.2815C40.2912 57.4757 40.4854 58.0582 40.3883 58.5437Z" fill="#FBC436"/>
<path d="M46.9903 58.5434L42.6214 70.5822C42.6214 70.5822 42.6214 70.6793 42.5243 70.7764C42.3301 71.1647 42.0388 71.3589 41.5534 71.3589H28.3495C27.767 71.3589 27.3787 70.8735 27.3787 70.388V70.2909C27.3787 69.7084 27.8641 69.3201 28.3495 69.3201H40C40.3884 69.3201 40.7767 69.0288 40.9709 68.6404L44.9515 57.7667C45.1456 57.1841 45.7282 56.99 46.3107 57.1841C46.8932 57.3783 47.1845 57.9608 46.9903 58.5434Z" fill="#FBC436"/>
<path d="M73.6893 40.0971V31.6505C73.6893 30.7767 74.3689 30 75.3398 30C76.2136 30 76.9903 30.6796 76.9903 31.6505V40.0971C76.9903 40.9709 76.3107 41.7476 75.3398 41.7476C74.3689 41.7476 73.6893 40.9709 73.6893 40.0971Z" fill="#FBC436"/>
<path d="M86.1165 79.7084C85.7281 78.2521 86.1165 76.7958 87.0873 75.7278C88.1553 74.6599 89.7087 74.2715 91.165 74.6599" stroke="#FBC436" stroke-width="3.34" stroke-miterlimit="10" stroke-linecap="round"/>
<path d="M43.0097 20.2914C41.8446 21.1652 40.1942 21.2622 38.932 20.6797C37.5728 20.0001 36.699 18.738 36.6019 17.1846" stroke="#FBC436" stroke-width="3.34" stroke-miterlimit="10" stroke-linecap="round"/>
<path d="M76.0194 91.0678C75.8252 89.6115 76.4077 88.1552 77.6699 87.2814C78.8349 86.4076 80.4854 86.2134 81.8446 86.893" stroke="#FBC436" stroke-width="3.34" stroke-miterlimit="10" stroke-linecap="round"/>
<path d="M95.1456 90.6791C94.9514 89.2228 95.534 87.7665 96.7961 86.8927C97.9611 86.0189 99.6116 85.8248 100.971 86.5044" stroke="#FBC436" stroke-width="3.34" stroke-miterlimit="10" stroke-linecap="round"/>
</g>
<defs>
<clipPath id="clip0">
<rect width="110" height="101.456" fill="white"/>
</clipPath>
</defs>
</svg>
