<svg width="110" height="111" viewBox="0 0 110 111" fill="none" xmlns="http://www.w3.org/2000/svg">
<g clip-path="url(#clip0)">
<path d="M58.9321 24.6602H32.7185C30 24.6602 27.6699 26.7961 27.6699 29.5145V58.6407V58.7378C27.6699 60.097 28.2524 61.2621 29.2233 62.233C30.1942 63.2038 31.4563 63.6893 32.7185 63.6893H56.9903C57.1845 63.6893 57.3787 63.6893 57.4757 63.5922C57.6699 63.4951 57.767 63.398 57.9612 63.3009C58.0583 63.2038 58.1554 63.0097 58.2524 62.9126C58.3495 62.7184 58.3495 62.6213 58.3495 62.4271V56.6019H58.9321C59.3204 56.6019 59.6117 56.4077 59.9029 56.1165C60.1942 55.8252 60.2913 55.5339 60.2913 55.1456V25.9223C60.2913 25.2427 59.6117 24.6602 58.9321 24.6602Z" stroke="#FBC436" stroke-width="3.34" stroke-miterlimit="10"/>
<path d="M36.5049 24.6602V55.1456" stroke="#FBC436" stroke-width="3.34" stroke-miterlimit="10"/>
<path d="M27.6699 55.7285H60.2913" stroke="#FBC436" stroke-width="3.34" stroke-miterlimit="10"/>
<path d="M76.699 70.6797L81.0679 75.0486" stroke="#FBC436" stroke-width="3.34" stroke-miterlimit="10"/>
<path d="M70.4854 76.6025L75.0485 81.1656" stroke="#FBC436" stroke-width="3.34" stroke-miterlimit="10"/>
<path d="M43.9805 86.3106C67.3588 86.3106 86.3106 67.3587 86.3106 43.9805C86.3106 20.6022 67.3588 1.65039 43.9805 1.65039C20.6022 1.65039 1.65039 20.6022 1.65039 43.9805C1.65039 67.3587 20.6022 86.3106 43.9805 86.3106Z" stroke="#FBC436" stroke-width="3.34" stroke-miterlimit="10"/>
<path d="M43.9805 75.8251C61.5678 75.8251 75.8252 61.5677 75.8252 43.9804C75.8252 26.3931 61.5678 12.1357 43.9805 12.1357C26.3932 12.1357 12.1359 26.3931 12.1359 43.9804C12.1359 61.5677 26.3932 75.8251 43.9805 75.8251Z" stroke="#FBC436" stroke-width="3.34" stroke-miterlimit="10"/>
<path d="M105.922 105.922C102.621 109.223 97.1845 109.223 93.8835 105.922L73.0097 85.048C72.5243 84.5626 72.5243 83.6888 73.0097 83.2033L83.1068 73.1063C83.5922 72.6208 84.466 72.6208 84.9515 73.1063L105.825 93.9801C109.223 97.281 109.223 102.621 105.922 105.922Z" stroke="#FBC436" stroke-width="3.34" stroke-miterlimit="10"/>
</g>
<defs>
<clipPath id="clip0">
<rect width="110" height="110.097" fill="white"/>
</clipPath>
</defs>
</svg>
