<svg width="36" height="16" viewBox="0 0 36 16" fill="none" xmlns="http://www.w3.org/2000/svg">
<path d="M24.3991 12.584L12.812 12.8036" stroke="white" stroke-linecap="round" stroke-linejoin="round"/>
<path d="M2.1812 12.8039C1.67497 12.6941 1.22499 12.5294 1.16874 12.2549C1.1125 11.7059 1 10.1686 1 9.4549C1 9.18039 1.05625 8.85098 1.22499 8.63137C1.84372 7.53333 3.92488 4.89804 9.60591 5.11765L15.3994 1.32941C15.6807 1.16471 16.0182 1.0549 16.2994 1.0549L27.324 1C27.4927 1 27.6615 1 27.8302 1.0549C29.0676 1.38431 34.4112 3.25098 33.68 7.97255L34.2987 8.30196C34.5799 8.41177 34.8049 8.68628 34.8612 8.96079C35.0862 9.72941 35.0299 10.5529 34.7487 11.3216" stroke="white" stroke-linecap="round" stroke-linejoin="round"/>
<path d="M11.6309 6.49055L28.6177 6.38074V3.91016" stroke="white" stroke-linecap="round" stroke-linejoin="round"/>
<path d="M7.35597 15C8.90921 15 10.1684 13.7709 10.1684 12.2549C10.1684 10.7388 8.90921 9.50977 7.35597 9.50977C5.80273 9.50977 4.54358 10.7388 4.54358 12.2549C4.54358 13.7709 5.80273 15 7.35597 15Z" stroke="white" stroke-linecap="round" stroke-linejoin="round"/>
<path d="M29.7427 15C31.2959 15 32.5551 13.7709 32.5551 12.2549C32.5551 10.7388 31.2959 9.50977 29.7427 9.50977C28.1894 9.50977 26.9303 10.7388 26.9303 12.2549C26.9303 13.7709 28.1894 15 29.7427 15Z" stroke="white" stroke-linecap="round" stroke-linejoin="round"/>
<path d="M4.54358 8.13721L3.53112 9.34505L1.44995 9.29015" stroke="white" stroke-linecap="round" stroke-linejoin="round"/>
</svg>
