<svg width="34" height="34" viewBox="0 0 34 34" fill="none" xmlns="http://www.w3.org/2000/svg">
<path d="M32.4062 18.0629C33.1714 17.9266 32.8805 17.3888 32.9375 16.43C33.0069 15.424 32.706 15.375 31.875 15.4066C32.0742 13.9063 30.5768 14.0504 30.8125 15.4066H26.0312C26.0524 14.5453 24.3781 14.9707 23.9062 14.8754V13.8129C24.2629 13.7556 25.7487 13.9912 25.942 13.5763C26.1448 13.1043 27.5829 11.6943 26.8832 11.2643C26.8454 11.2374 26.805 11.2144 26.7626 11.1957L20.6084 8.63146C20.5242 8.55729 19.9197 8.37819 19.7417 8.73857C19.4819 9.0631 17.6898 11.3033 17.6483 11.355C17.4429 11.6389 17.5608 11.963 17.5312 12.7403C17.4575 13.8442 17.8004 13.8317 18.5473 13.8127H20.7187V14.8752H17C16.9732 14.8754 16.9464 14.8776 16.9199 14.8818C16.9196 14.8806 16.6858 13.4761 16.5514 12.6708C16.4368 12.1854 16.5561 11.7759 15.9375 11.6877C15.9352 10.7358 15.7527 9.79305 15.3996 8.90911C15.3988 8.90711 16.834 8.64175 17.4039 8.53331C17.6674 8.47441 17.5006 8.53703 17.7611 8.44798C18.7137 7.64579 17.3578 7.34524 16.7969 7.10292C15.1748 6.45825 12.485 5.37018 12.3711 5.33652C11.9754 5.09472 11.5577 4.89067 11.1238 4.72704C11.352 4.57809 12.8428 3.0629 13.0102 2.85219C13.9341 1.33262 11.8981 0.112468 10.8906 1.37412C9.60121 -0.0831648 7.73705 1.75124 8.92121 3.03228C8.91988 3.03228 9.11498 3.22486 9.36613 3.47721L10.3803 4.49143C1.53185 2.52262 -2.61389 14.204 5.1996 18.3543C3.3484 20.3591 1.47222 24.687 2.13071 26.6386C2.13624 26.6763 2.14586 26.7134 2.15939 26.749C2.30223 27.263 2.5405 27.7689 2.87446 28.1582C0.261635 27.9523 1.28237 28.7806 1.06522 30.4558C1.09802 31.1106 0.87928 32.4362 1.24285 32.8055C2.277 33.2825 3.9167 32.193 4.40379 31.5069C5.60814 32.0826 6.75006 32.3412 8.00175 32.5884C8.039 32.6907 8.10677 32.7791 8.19588 32.8416C8.28499 32.9041 8.39115 32.9377 8.5 32.9379H11.0493C11.2938 32.9445 11.5056 32.9445 11.6946 32.9379H12.1672C12.4237 32.9433 12.7117 32.9524 13.0251 32.9379C15.3199 32.8495 16.5416 33.5063 15.645 31.1336C16.2875 29.5826 15.0552 27.8008 13.7774 26.6604C13.8858 26.175 13.8978 25.7114 13.7792 25.3097C14.3802 24.9951 14.9466 24.6185 15.4692 24.1861C15.8885 24.194 16.4719 24.2027 17.0135 24.2017C16.9254 24.8639 17.2277 25.6137 17.7217 26.0316C16.7309 26.8841 16.8045 28.4355 17.7217 29.2191C17.3974 29.5042 17.1676 29.8813 17.0631 30.3002C16.9586 30.7192 16.9843 31.16 17.1367 31.564C17.2892 31.968 17.5611 32.3159 17.9164 32.5614C18.2716 32.8068 18.6932 32.9382 19.125 32.9379H30.8125C31.2443 32.9382 31.6659 32.8068 32.0211 32.5614C32.3764 32.3159 32.6483 31.968 32.8008 31.564C32.9532 31.16 32.9789 30.7192 32.8744 30.3002C32.7699 29.8813 32.5401 29.5042 32.2158 29.2191C33.2066 28.3667 33.133 26.8152 32.2158 26.0316C33.5008 24.8799 32.9591 22.8791 31.4437 22.4086C31.1898 22.2135 26.2247 22.3512 25.8435 22.3129C26.7371 21.5178 26.8742 19.9323 26.0312 19.0351V18.0629H32.4062ZM9.67253 1.96978C10.3757 1.65993 10.4619 3.63997 11.7851 1.98207C11.8643 1.84122 12.2632 1.91527 12.1499 2.22392C12.1316 2.25933 12.1059 2.2904 12.0746 2.31503L10.8906 3.49912C10.7815 3.29652 9.33333 2.20891 9.67253 1.96978ZM21.8971 19.977C22.6453 19.5092 22.6848 18.5191 21.9429 18.0629H22.8437V19.0311C22.5865 19.28 22.3927 19.5869 22.2786 19.9262C22.154 19.947 22.0264 19.9633 21.8971 19.977ZM15.693 22.4899C14.2898 24.2286 10.0729 26.4295 8.52032 24.5595C7.9625 23.8779 7.79855 22.7326 7.86522 21.7713C7.98654 18.3545 12.0992 18.1074 11.1595 21.7223C11.3454 23.0515 12.7798 21.9625 13.3388 21.2989C14.0083 20.8443 14.5588 20.2817 15.2495 19.7831C15.3327 19.7276 15.4414 19.656 15.5872 19.5684C15.8482 20.2306 16.1834 20.861 16.5864 21.4477C16.3057 21.7654 16.0139 22.1317 15.693 22.4899ZM7.4353 31.3884C7.44195 31.3286 7.4353 28.9048 7.4375 28.8482C7.71155 28.7501 7.98761 28.6401 8.26093 28.5262C8.08416 29.4745 8.00487 30.6194 7.98116 31.502C7.79609 31.4656 7.61327 31.428 7.4353 31.3882V31.3884ZM9.56389 28.1566H9.42968C9.87633 26.8772 8.925 26.9869 8.12639 27.4304C7.35004 27.7615 6.46438 28.1137 5.82462 28.1566C5.63828 28.1566 5.45197 28.1569 5.26568 28.1573C4.65985 28.1331 3.81802 27.8483 3.45943 27.1492C4.88763 27.118 6.36231 26.4666 7.72145 25.2591C8.89372 26.7205 11.1503 26.4743 12.792 25.7731C12.8687 26.5165 12.3899 27.4177 12.0685 28.1566H9.56389ZM6.76732 18.0629C6.76407 18.0526 6.75995 18.043 6.75617 18.0328C6.74953 17.9936 4.83039 11.7747 4.82036 11.7351L5.64081 10.0941H8.5C8.66747 15.4133 7.41797 14.1963 12.4088 14.3441C12.9106 14.3504 12.8275 14.3738 13.4758 14.0439L15.5318 13.016L15.8998 15.2243L13.0612 18.0629H6.76732ZM3.92168 11.1566H2.14731C2.17681 10.798 2.23679 10.4426 2.3266 10.0941H4.45293L3.92168 11.1566ZM12.2139 19.4094C12.6987 19.4625 13.2105 19.5121 13.7596 19.6153C13.3056 20.0703 12.8327 20.2646 12.3607 20.7677C12.3685 20.412 12.3194 20.0573 12.2153 19.7171C12.2234 19.6146 12.2229 19.5117 12.2139 19.4094ZM17.4862 20.881C17.1008 20.325 16.7844 19.7243 16.5437 19.0922C18.0169 18.504 20.0041 18.3226 21.4197 18.9953C20.8715 19.3964 19.8571 18.4151 19.8598 19.6394C19.8525 19.7258 19.7939 19.8263 19.5325 20.0041C19.0187 20.3676 18.1278 20.6212 17.4862 20.881ZM23.2518 20.4028C23.6594 18.8789 25.7206 19.2648 25.5276 20.7003C25.3179 22.4178 23.1062 21.9047 23.2518 20.4031V20.4028ZM24.7379 18.3791C24.4603 18.3393 24.1775 18.3557 23.9062 18.4271V18.0629H24.9687V18.4254C24.8935 18.407 24.8169 18.3909 24.7379 18.3794V18.3791ZM31.875 16.4691V17.0004H26.0312V16.4691H31.875ZM18.5937 11.8743L20.3524 9.67577L25.7626 11.93L25.2157 12.7504H18.5937V11.8743ZM21.7812 13.8129H22.8437V14.8754H21.7812V13.8129ZM17.5312 15.9379H24.9687V17.0004H17.5312V15.9379ZM16.4687 16.1579V17.479L16.3597 18.0247C15.838 18.2177 15.3381 18.4653 14.8684 18.7633C14.5766 18.6953 14.3017 18.6372 14.0395 18.5872L16.4687 16.1579ZM14.875 11.6879C14.875 11.8472 14.8684 12.0071 14.8563 12.166L12.6246 13.2816H9.5625V10.0038L14.3319 9.10952C14.6926 9.9211 14.8777 10.7998 14.875 11.6879ZM14.544 7.98905L10.4169 8.76288L12.3746 6.47897L15.6373 7.78405L14.544 7.98905ZM8.5 5.31287C9.50218 5.31216 10.4904 5.54815 11.3841 6.00164L8.78694 9.03162H2.70545C3.21484 7.92275 4.03139 6.98312 5.05837 6.32404C6.08535 5.66496 7.27972 5.31404 8.5 5.31287ZM2.14771 12.2191H3.8576L5.41005 17.2647C4.49457 16.7552 3.71827 16.0287 3.14942 15.1489C2.58056 14.2691 2.23658 13.263 2.14771 12.2191ZM3.16937 24.5757C3.61077 22.9321 4.74944 20.3 6.04542 19.0094C6.22472 19.2213 7.48909 19.0925 7.73214 19.1254C6.54938 20.6533 6.60151 22.7648 7.16955 24.3246C6.30626 25.1249 4.81212 26.1979 3.09811 26.0798C3.01777 25.5789 3.04204 25.0668 3.16937 24.5757ZM3.80507 30.5225C3.35769 31.2077 2.82093 31.6121 2.10753 31.7882C2.09624 30.8793 2.15634 30.1835 2.14073 29.2202C3.01584 29.2214 4.22954 29.2202 5.23593 29.2198C5.445 29.2322 5.65464 29.2318 5.86367 29.2187C5.87031 29.2183 5.87157 29.2187 5.89833 29.2163C6.05838 29.2044 6.21756 29.1828 6.375 29.1516V31.1172C4.87116 30.7568 4.24508 29.8888 3.80507 30.5225ZM12.1754 31.8754C11.9882 31.8717 11.8317 31.8705 11.683 31.8754H9.03516C9.045 30.9867 9.10827 30.0994 9.22462 29.2183C9.41308 29.2196 11.4041 29.2191 11.6352 29.2191C11.516 29.4655 11.3128 29.8694 11.2513 29.9784C10.9554 30.3865 11.4041 30.9689 11.8852 30.7748L11.8879 30.7736C13.0613 30.2743 14.4331 30.3686 14.78 31.8754H12.1754ZM14.7208 29.8859C14.1073 29.5326 13.3972 29.384 12.6936 29.4619C12.8543 28.9625 13.1604 28.3345 13.4012 27.7736C13.973 28.2981 14.6874 29.3785 14.7208 29.8859ZM31.875 30.8129C31.7439 32.4364 29.8367 31.7286 27.7564 31.8754C23.7412 31.8027 18.7596 32.062 18.5313 31.6937C17.7757 31.2023 17.9991 30.0651 18.7764 29.8091C19.3134 29.6648 21.517 29.7887 24.7934 29.7502C30.1418 29.866 31.7984 29.2412 31.875 30.8129ZM31.875 27.6254C31.7439 29.2489 29.8367 28.5411 27.7564 28.6879C23.7412 28.6152 18.7596 28.8745 18.5313 28.5062C17.7757 28.0148 17.9991 26.8776 18.7764 26.6216C19.3134 26.4773 21.517 26.6012 24.7934 26.5627C30.1418 26.6785 31.7984 26.0537 31.875 27.6254ZM31.875 24.4379C31.7439 26.0614 29.8367 25.3536 27.7564 25.5004C23.7412 25.4277 18.7596 25.687 18.5313 25.3187C17.7757 24.8273 17.9991 23.6901 18.7764 23.4341C19.3134 23.2898 21.517 23.4137 24.7934 23.3752C30.1418 23.491 31.7984 22.8662 31.875 24.4379ZM19.125 22.3129C18.8008 22.3129 18.481 22.3873 18.19 22.5301C17.8991 22.673 17.6447 22.8807 17.4464 23.1371C17.1379 23.14 16.8323 23.1398 16.5385 23.1378C17.8147 21.3623 18.542 21.8735 19.9207 21.01C20.6859 21.1043 21.4598 21.104 22.225 21.0091C22.3368 21.5174 22.6116 21.9752 23.0076 22.3129H19.125Z" fill="white"/>
<path d="M16.6243 4.62558C17.1813 5.02846 17.3798 4.58361 17.7997 4.20151L18.9684 3.03276C20.2 1.62687 18.1753 -0.0227948 16.9999 1.37366C15.6792 -0.100822 13.8546 1.79288 15.0316 3.03295C15.049 3.04996 15.2574 3.2592 15.5219 3.52323L16.6243 4.62558ZM15.7818 1.96933C16.485 1.65947 16.5712 3.63951 17.8944 1.98161C17.9736 1.84076 18.3726 1.91481 18.2592 2.22346C18.2409 2.25887 18.2152 2.28994 18.1839 2.31457L16.9999 3.49866C16.8908 3.29606 15.4426 2.20846 15.7818 1.96933Z" fill="white"/>
<path d="M4.67114 4.62558C5.22816 5.02846 5.42671 4.58361 5.84653 4.20151L7.01528 3.03276C8.24685 1.62687 6.22219 -0.0227948 5.0468 1.37366C3.72605 -0.100822 1.90147 1.79288 3.07852 3.03295C3.09592 3.04996 3.3043 3.2592 3.56873 3.52323L4.67114 4.62558ZM3.82871 1.96933C4.53189 1.65947 4.61808 3.63951 5.9413 1.98161C6.02045 1.84076 6.41942 1.91481 6.30607 2.22346C6.28778 2.25887 6.2621 2.28994 6.23076 2.31457L5.0468 3.49866C4.9377 3.29606 3.48951 2.20846 3.82871 1.96933Z" fill="white"/>
<path d="M22.7338 4.62558C23.2908 5.02846 23.4893 4.58361 23.9092 4.20151L25.0779 3.03276C26.3095 1.62687 24.2848 -0.0227948 23.1094 1.37366C21.7887 -0.100822 19.9641 1.79288 21.1411 3.03295C21.1585 3.04996 21.3669 3.2592 21.6314 3.52323L22.7338 4.62558ZM21.8913 1.96933C22.5945 1.65947 22.6807 3.63951 24.0039 1.98161C24.0831 1.84076 24.482 1.91481 24.3687 2.22346C24.3504 2.25887 24.3247 2.28994 24.2934 2.31457L23.1094 3.49866C23.0003 3.29606 21.5521 2.20846 21.8913 1.96933Z" fill="white"/>
<path d="M28.5775 4.62558C29.1345 5.02846 29.3331 4.58361 29.7529 4.20151L30.9217 3.03276C32.1532 1.62687 30.1286 -0.0227948 28.9532 1.37366C27.6324 -0.100822 25.8078 1.79288 26.9849 3.03295C27.0023 3.04996 27.2107 3.2592 27.4751 3.52323L28.5775 4.62558ZM27.7351 1.96933C28.4383 1.65947 28.5245 3.63951 29.8477 1.98161C29.9268 1.84076 30.3258 1.91481 30.2124 2.22346C30.1941 2.25887 30.1685 2.28994 30.1371 2.31457L28.9532 3.49866C28.8441 3.29606 27.3959 2.20846 27.7351 1.96933Z" fill="white"/>
<path d="M12.75 11.6876C13.5327 11.6965 13.4349 10.1131 12.8221 10.0987C11.9512 9.95783 12.0294 11.7582 12.75 11.6876Z" fill="white"/>
</svg>
