<svg width="34" height="25" viewBox="0 0 34 25" fill="none" xmlns="http://www.w3.org/2000/svg">
<path d="M33.6462 22.1936C33.1155 19.6503 31.6118 17.5455 29.5774 16.1423C30.9042 14.6514 31.7003 12.8097 31.7003 10.7926C31.7003 8.68781 30.8158 6.67071 29.3121 5.17981C27.8084 3.68891 25.774 2.89961 23.6512 2.89961C22.1475 2.89961 20.6439 3.33811 19.4055 4.12741C17.8134 1.67181 14.983 0.00551095 11.7987 0.00551095C6.757 -0.169889 2.68824 3.86431 2.68824 8.86321C2.68824 11.2311 3.6612 13.4236 5.16488 15.0022C2.86514 16.5808 1.09612 19.0364 0.476956 21.9305L0.0346999 24.123C-0.0537514 24.2984 0.0346999 24.5615 0.211602 24.7369C0.388505 24.9123 0.565408 25 0.74231 25H13.9216H14.01H33.2924C33.4693 25 33.7346 24.9123 33.8231 24.7369C34 24.5615 34 24.3861 34 24.123L33.6462 22.1936ZM23.6512 4.21511C25.4202 4.21511 27.1008 4.91671 28.3391 6.14451C29.5774 7.37231 30.285 9.03861 30.285 10.7926C30.285 12.5466 29.5774 14.2129 28.3391 15.4407C27.1008 16.6685 25.4202 17.3701 23.6512 17.3701C21.8822 17.3701 20.2016 16.6685 18.9633 15.4407C18.7864 15.2653 18.6095 15.0899 18.4326 14.9145C19.8478 13.3359 20.7323 11.2311 20.7323 8.95091C20.7323 7.63541 20.467 6.49531 19.9362 5.35521C21.1746 4.56591 22.4129 4.21511 23.6512 4.21511ZM11.7987 1.23331C16.0444 1.23331 19.4055 4.65361 19.4055 8.77551C19.4055 12.8974 15.9559 16.3177 11.7987 16.3177C7.64151 16.3177 4.10346 12.9851 4.10346 8.86321C4.10346 4.74131 7.55306 1.23331 11.7987 1.23331ZM1.62682 23.5091L1.89218 22.1936C2.42288 19.5626 4.10346 17.3701 6.22629 15.9669C7.72996 17.107 9.67589 17.8963 11.7987 17.8963C13.9216 17.8963 15.779 17.1947 17.3712 16.0546C19.494 17.4578 21.1746 19.6503 21.7053 22.2813L21.9706 23.5968H1.62682V23.5091ZM23.4743 24.123L23.032 21.9305C22.7667 20.7027 22.3244 19.5626 21.6168 18.5102C22.236 18.6856 22.9436 18.7733 23.6512 18.7733C25.4202 18.7733 27.1008 18.1594 28.516 17.107C30.3735 18.3348 31.7003 20.2642 32.231 22.4567L32.4963 23.5091H23.3858L23.4743 24.123Z" fill="white"/>
</svg>
